# xmcd CD database file
#
# Track frame offsets:
#	150
#	8979
#	24991
#	39676
#	58025
#	74086
#	98181
#	118444
#	133774
#	154408
#	174838
#	188992
#	205969
#	222729
#	241362
#	258770
#	283953
#
# Disc length: 4414 seconds
#
# Revision: 3
# Processed by: cddbd v1.5.2PL0 Copyright (c) Steve Scherf et al.
# Submitted via: CDex 1.70beta3
#
DISCID=0e113c11
DTITLE=Various Artist - オールナイトニッポン EVER GREEN 4
DYEAR=2008
DGENRE=radio
TTITLE0=BitterSweet Samba
TTITLE1=Char／気絶するほど悩ましい
TTITLE2=松山千春／季節の中で
TTITLE3=中島みゆき／悪女
TTITLE4=斉藤哲夫／いまのキミはピカピカに光って
TTITLE5=来生たかお／Goodbye Day
TTITLE6=チューリップ／虹とスニーカーの頃
TTITLE7=堀内孝雄／君のひとみは10000ボルト
TTITLE8=永井龍雲／道標ない旅
TTITLE9=甲斐バンド／安奈
TTITLE10=シャネルズ／ランナウェイ
TTITLE11=原田真二／てぃーんずぶるーす
TTITLE12=久保田早紀／異邦人
TTITLE13=五輪真弓／恋人よ
TTITLE14=河島英五／酒と泪と男と女
TTITLE15=山崎ハコ／サヨナラの鐘
TTITLE16=BE∀T BOYS／ショック!!TAKURO23
EXTD=YEAR: 2008
EXTT0=
EXTT1=
EXTT2=
EXTT3=
EXTT4=
EXTT5=
EXTT6=
EXTT7=
EXTT8=
EXTT9=
EXTT10=
EXTT11=
EXTT12=
EXTT13=
EXTT14=
EXTT15=
EXTT16=
PLAYORDER=
